<svg width="722" height="169" viewBox="0 0 722 169" fill="none" xmlns="http://www.w3.org/2000/svg">
<path d="M98.6854 46.3631C99.3094 60.8709 99.2314 75.6128 98.4514 90.5887L97.7494 165.234C95.4094 164.922 92.8354 164.766 90.0275 164.766C87.2195 164.766 84.4115 164.766 81.6036 164.766C78.7956 164.766 76.0656 164.844 73.4136 165C70.9176 165 68.7337 165 66.8617 165C66.5497 158.292 66.3157 151.038 66.1597 143.238C66.1597 135.438 66.0817 127.482 65.9257 119.37C65.9257 111.258 65.6917 103.303 65.2237 95.5026C64.9117 87.7027 64.3657 80.5268 63.5857 73.9748C62.4937 75.6908 61.2457 78.4208 59.8417 82.1647C58.4378 85.7527 57.0338 89.4967 55.6298 93.3966C54.2258 97.2966 52.8998 100.729 51.6518 103.693C50.4038 106.657 49.4678 108.139 48.8438 108.139C48.0638 108.139 47.1279 107.359 46.0359 105.799C45.0999 104.083 44.0859 101.977 42.9939 99.4806C42.0579 96.9846 41.0439 94.3326 39.9519 91.5247C38.8599 88.7167 37.9239 86.1427 37.1439 83.8027C36.364 81.4627 35.662 79.5128 35.038 77.9528C34.57 76.3928 34.336 75.6128 34.336 75.6128C33.088 90.2767 32.62 105.097 32.932 120.072C33.4 135.048 34.102 149.79 35.038 164.298C30.046 165.078 24.5861 165.39 18.6581 165.234C12.7302 165.078 7.27021 165 2.27826 165C1.96626 165 1.73226 164.766 1.57626 164.298C1.42026 163.674 1.26427 162.192 1.10827 159.852C0.952268 157.512 0.79627 154.002 0.640271 149.322C0.640271 144.486 0.640271 138.168 0.640271 130.368C0.640271 122.568 0.640271 112.896 0.640271 101.353C0.79627 89.8087 0.874269 76.0808 0.874269 60.1689C1.03027 44.2571 1.18627 25.6932 1.34227 4.47742C3.37025 3.85343 5.71023 3.46343 8.3622 3.30743C11.0142 3.15144 13.7442 3.15144 16.5521 3.30743C19.3601 3.30743 22.1681 3.38543 24.9761 3.54143C27.784 3.54143 30.514 3.46343 33.166 3.30743H33.4C34.804 4.86742 36.208 7.2854 37.6119 10.5614C39.0159 13.6813 40.3419 17.0353 41.5899 20.6233C42.8379 24.2112 44.0079 27.6432 45.0999 30.9192C46.3479 34.1952 47.5959 36.7691 48.8438 38.6411C49.3118 39.1091 49.7798 39.3431 50.2478 39.3431C50.7158 39.4991 51.4178 38.0171 52.3538 34.8971C53.4458 31.7772 54.5378 28.1892 55.6298 24.1332C56.8778 19.9213 58.2038 15.7873 59.6077 11.7314C61.1677 7.67539 62.6497 4.71142 64.0537 2.83944C65.1457 2.99544 67.0957 2.99544 69.9037 2.83944C72.8676 2.68345 75.9876 2.52745 79.2636 2.37144C82.6955 2.21544 86.1275 2.13745 89.5595 2.13745C93.1475 1.98145 96.1894 1.90345 98.6854 1.90345C98.0614 16.8793 98.0614 31.6992 98.6854 46.3631ZM181.047 72.1028C182.139 76.6268 182.997 80.2148 183.621 82.8667L201.171 164.766V165C196.491 165.936 191.343 166.248 185.727 165.936C180.111 165.78 174.807 165.156 169.815 164.064H169.581C168.645 161.568 167.709 158.604 166.773 155.172C165.993 151.74 165.135 148.23 164.199 144.642C163.419 141.054 162.561 137.622 161.625 134.346C160.689 131.07 159.675 128.262 158.583 125.922C156.555 125.61 154.995 125.454 153.903 125.454C152.811 125.454 151.797 125.454 150.861 125.454C150.081 125.454 149.145 125.532 148.053 125.688C147.117 125.688 145.791 125.688 144.076 125.688C142.984 128.184 142.048 131.148 141.268 134.58C140.644 137.856 139.942 141.366 139.162 145.11C138.538 148.698 137.836 152.208 137.056 155.64C136.276 159.072 135.184 162.114 133.78 164.766C133.624 164.766 133.468 164.844 133.312 165C133.312 165 133.234 165 133.078 165C131.83 165.312 128.71 165.312 123.718 165C118.726 164.688 110.926 164.61 100.318 164.766C100.162 164.766 100.006 164.688 99.8499 164.532C100.162 163.44 100.708 160.398 101.488 155.406C102.268 150.414 103.36 143.94 104.764 135.984C106.168 128.028 107.806 118.902 109.678 108.607C111.706 98.1546 114.046 87.0787 116.698 75.3788C119.35 63.6789 122.236 51.511 125.356 38.8751C128.476 26.2392 131.908 13.6813 135.652 1.20145C136.744 1.04546 137.914 0.967457 139.162 0.967457C140.41 0.967457 142.048 0.967457 144.076 0.967457C146.103 0.967457 148.677 0.967457 151.797 0.967457C155.073 0.811461 159.285 0.499463 164.433 0.0314637C164.901 2.05945 165.603 5.17942 166.539 9.39139C167.631 13.4473 168.723 18.1273 169.815 23.4313C171.063 28.5792 172.311 34.1172 173.559 40.0451C174.963 45.9731 176.289 51.667 177.537 57.127C178.785 62.5869 179.955 67.5789 181.047 72.1028ZM150.861 98.3106C153.825 98.1546 156.789 98.0766 159.753 98.0766C158.193 84.6607 156.789 74.2088 155.541 66.7209C154.449 59.2329 153.435 54.163 152.499 51.511C151.719 48.859 150.861 48.313 149.925 49.873C149.145 51.277 148.365 54.241 147.585 58.7649C146.961 63.2889 146.181 68.9829 145.245 75.8468C144.466 82.7107 143.53 90.1207 142.438 98.0766C145.089 98.2326 147.897 98.3106 150.861 98.3106ZM271.743 8.45539C276.423 12.0434 280.167 16.0993 282.975 20.6233C286.407 25.9272 289.215 31.4652 291.399 37.2371C293.739 42.8531 295.611 48.781 297.015 55.021C297.795 57.517 298.263 60.0129 298.419 62.5089C298.731 64.8489 298.965 67.2669 299.121 69.7628C298.809 77.0948 298.497 84.5047 298.185 91.9927C298.029 99.3246 297.249 106.579 295.845 113.754C295.845 113.91 295.767 113.988 295.611 113.988C295.611 113.988 295.611 114.066 295.611 114.222C292.491 123.426 288.201 132.162 282.741 140.43C277.437 148.698 271.821 156.498 265.893 163.83C255.597 164.142 245.224 164.376 234.772 164.532C224.32 164.532 214.18 164.532 204.352 164.532C204.352 164.532 204.274 164.61 204.118 164.766C202.402 152.442 201.31 139.728 200.842 126.624C200.374 113.364 200.14 99.9486 200.14 86.3767C200.14 72.8048 200.218 59.1549 200.374 45.4271C200.686 31.5432 200.686 17.8153 200.374 4.24343C200.53 4.08743 200.608 3.93143 200.608 3.77544C200.764 3.61943 200.92 3.46343 201.076 3.30743C205.444 2.21545 209.968 1.51345 214.648 1.20145C219.484 0.733462 224.32 0.577466 229.156 0.733462C233.992 0.733462 238.75 0.811461 243.43 0.967457C248.266 1.12345 252.945 1.12345 257.469 0.967457C262.461 2.21545 267.219 4.71143 271.743 8.45539ZM258.171 109.776C259.419 108.373 260.511 106.969 261.447 105.565C264.099 101.509 265.971 97.0626 267.063 92.2266C268.311 87.3907 268.311 82.0867 267.063 76.3148C266.595 73.9748 266.049 71.5568 265.425 69.0609C264.801 66.4089 263.865 63.9129 262.617 61.5729C261.525 59.2329 260.121 57.205 258.405 55.489C256.689 53.617 254.505 52.213 251.853 51.277C249.202 50.965 246.316 50.809 243.196 50.809C240.076 50.653 237.112 50.887 234.304 51.511H233.836H233.602V52.447C233.914 56.659 234.07 61.1829 234.07 66.0189C234.07 70.8548 233.992 75.9248 233.836 81.2287C233.68 86.3767 233.602 91.6807 233.602 97.1406C233.602 102.445 233.758 107.749 234.07 113.052C235.786 114.612 238.126 115.314 241.09 115.158C244.21 115.002 247.174 114.768 249.981 114.456C250.761 114.612 251.463 114.534 252.087 114.222C252.711 113.754 253.413 113.364 254.193 113.052C255.753 112.116 257.079 111.024 258.171 109.776ZM402.179 46.3631C402.803 60.8709 402.725 75.6128 401.945 90.5887L401.243 165.234C398.903 164.922 396.329 164.766 393.521 164.766C390.713 164.766 387.905 164.766 385.097 164.766C382.289 164.766 379.559 164.844 376.907 165C374.411 165 372.227 165 370.355 165C370.043 158.292 369.809 151.038 369.653 143.238C369.653 135.438 369.575 127.482 369.419 119.37C369.419 111.258 369.185 103.303 368.717 95.5026C368.405 87.7027 367.859 80.5268 367.079 73.9748C365.987 75.6908 364.739 78.4208 363.335 82.1647C361.931 85.7527 360.527 89.4967 359.123 93.3966C357.719 97.2966 356.393 100.729 355.145 103.693C353.897 106.657 352.961 108.139 352.337 108.139C351.557 108.139 350.621 107.359 349.529 105.799C348.593 104.083 347.579 101.977 346.487 99.4806C345.551 96.9846 344.537 94.3326 343.445 91.5247C342.353 88.7167 341.417 86.1427 340.637 83.8027C339.857 81.4627 339.155 79.5128 338.531 77.9528C338.063 76.3928 337.829 75.6128 337.829 75.6128C336.581 90.2767 336.113 105.097 336.425 120.072C336.893 135.048 337.595 149.79 338.531 164.298C333.539 165.078 328.08 165.39 322.152 165.234C316.224 165.078 310.764 165 305.772 165C305.46 165 305.226 164.766 305.07 164.298C304.914 163.674 304.758 162.192 304.602 159.852C304.446 157.512 304.29 154.002 304.134 149.322C304.134 144.486 304.134 138.168 304.134 130.368C304.134 122.568 304.134 112.896 304.134 101.353C304.29 89.8087 304.368 76.0808 304.368 60.1689C304.524 44.2571 304.68 25.6932 304.836 4.47742C306.864 3.85343 309.204 3.46343 311.856 3.30743C314.508 3.15144 317.238 3.15144 320.046 3.30743C322.854 3.30743 325.662 3.38543 328.47 3.54143C331.277 3.54143 334.007 3.46343 336.659 3.30743H336.893C338.297 4.86742 339.701 7.2854 341.105 10.5614C342.509 13.6813 343.835 17.0353 345.083 20.6233C346.331 24.2112 347.501 27.6432 348.593 30.9192C349.841 34.1952 351.089 36.7691 352.337 38.6411C352.805 39.1091 353.273 39.3431 353.741 39.3431C354.209 39.4991 354.911 38.0171 355.847 34.8971C356.939 31.7772 358.031 28.1892 359.123 24.1332C360.371 19.9213 361.697 15.7873 363.101 11.7314C364.661 7.67539 366.143 4.71142 367.547 2.83944C368.639 2.99544 370.589 2.99544 373.397 2.83944C376.361 2.68345 379.481 2.52745 382.757 2.37144C386.189 2.21544 389.621 2.13745 393.053 2.13745C396.641 1.98145 399.683 1.90345 402.179 1.90345C401.555 16.8793 401.555 31.6992 402.179 46.3631ZM495.071 12.1994C499.595 16.2553 502.792 21.0133 504.664 26.4732C505.756 28.8132 506.536 31.2312 507.004 33.7272C507.628 36.0671 508.096 38.4851 508.408 40.9811C508.72 44.8811 508.876 48.781 508.876 52.681C509.032 56.425 509.032 60.2469 508.876 64.1469C508.408 72.4148 508.252 80.4488 508.408 88.2487C508.564 96.0486 508.33 104.005 507.706 112.116L507.004 119.838C506.692 125.298 505.834 130.836 504.43 136.452C503.026 141.912 500.921 146.904 498.113 151.428C495.461 155.172 491.951 158.214 487.583 160.554C483.371 162.738 478.847 164.454 474.011 165.702C469.643 166.95 465.197 167.73 460.673 168.042C456.305 168.354 451.859 168.354 447.335 168.042C444.059 167.73 440.861 167.262 437.741 166.638C434.777 166.17 431.891 165.312 429.083 164.064C426.431 162.816 424.013 161.256 421.829 159.384C419.645 157.356 417.851 154.782 416.447 151.662C414.263 147.762 412.781 143.628 412.001 139.26C411.377 134.736 410.987 130.212 410.831 125.688C410.363 113.52 409.817 101.353 409.193 89.1847C408.725 76.8608 408.881 64.5369 409.661 52.213C409.817 45.1931 410.675 38.1731 412.235 31.1532C413.951 23.9773 417.227 17.6593 422.063 12.1994C423.623 10.6394 425.417 9.23538 427.445 7.9874C432.593 5.49142 438.131 3.69743 444.059 2.60545C450.143 1.35746 456.149 0.889459 462.077 1.20145C468.161 1.51345 474.011 2.60544 479.627 4.47742C485.399 6.19341 490.547 8.76739 495.071 12.1994ZM479.627 94.8006V83.5687L479.159 67.6569C479.159 67.5009 479.003 65.9409 478.691 62.9769C478.535 59.8569 478.379 56.971 478.223 54.319C477.911 49.951 476.663 45.9731 474.479 42.3851C472.451 38.7971 469.643 36.1451 466.055 34.4292C462.935 33.1812 459.737 32.9472 456.461 33.7272C453.185 34.5072 450.299 35.8331 447.803 37.7051C442.343 41.9171 438.677 47.299 436.805 53.851C435.557 59.7789 434.777 66.0189 434.465 72.5708C434.309 79.1228 434.387 85.6747 434.699 92.2266C435.479 97.6866 436.025 103.303 436.337 109.074C436.649 114.69 437.585 120.072 439.145 125.22C440.705 128.34 442.967 130.758 445.931 132.474C448.895 134.19 452.093 135.204 455.525 135.516C458.957 135.672 462.389 135.204 465.821 134.112C469.253 132.864 472.139 130.914 474.479 128.262C475.883 126.39 476.897 124.908 477.521 123.816C478.145 122.568 478.535 121.242 478.691 119.838C478.847 118.434 478.847 116.796 478.691 114.924C478.691 112.896 478.847 110.244 479.159 106.969C479.315 103.849 479.393 101.119 479.393 98.7786C479.549 96.4386 479.627 95.1126 479.627 94.8006ZM586.891 8.45539C591.571 12.0434 595.315 16.0993 598.123 20.6233C601.555 25.9272 604.363 31.4652 606.547 37.2371C608.887 42.8531 610.759 48.781 612.163 55.021C612.943 57.517 613.411 60.0129 613.567 62.5089C613.879 64.8489 614.113 67.2669 614.269 69.7628C613.957 77.0948 613.645 84.5047 613.333 91.9927C613.177 99.3246 612.397 106.579 610.993 113.754C610.993 113.91 610.915 113.988 610.759 113.988C610.759 113.988 610.759 114.066 610.759 114.222C607.639 123.426 603.349 132.162 597.889 140.43C592.585 148.698 586.969 156.498 581.041 163.83C570.745 164.142 560.371 164.376 549.919 164.532C539.467 164.532 529.328 164.532 519.5 164.532C519.5 164.532 519.422 164.61 519.266 164.766C517.55 152.442 516.458 139.728 515.99 126.624C515.522 113.364 515.288 99.9486 515.288 86.3767C515.288 72.8048 515.366 59.1549 515.522 45.4271C515.834 31.5432 515.834 17.8153 515.522 4.24343C515.678 4.08743 515.756 3.93143 515.756 3.77544C515.912 3.61943 516.068 3.46343 516.224 3.30743C520.592 2.21545 525.116 1.51345 529.796 1.20145C534.631 0.733462 539.467 0.577466 544.303 0.733462C549.139 0.733462 553.897 0.811461 558.577 0.967457C563.413 1.12345 568.093 1.12345 572.617 0.967457C577.609 2.21545 582.367 4.71143 586.891 8.45539ZM573.319 109.776C574.567 108.373 575.659 106.969 576.595 105.565C579.247 101.509 581.119 97.0626 582.211 92.2266C583.459 87.3907 583.459 82.0867 582.211 76.3148C581.743 73.9748 581.197 71.5568 580.573 69.0609C579.949 66.4089 579.013 63.9129 577.765 61.5729C576.673 59.2329 575.269 57.205 573.553 55.489C571.837 53.617 569.653 52.213 567.001 51.277C564.349 50.965 561.463 50.809 558.343 50.809C555.223 50.653 552.259 50.887 549.451 51.511H548.983H548.749V52.447C549.061 56.659 549.217 61.1829 549.217 66.0189C549.217 70.8548 549.139 75.9248 548.983 81.2287C548.827 86.3767 548.749 91.6807 548.749 97.1406C548.749 102.445 548.905 107.749 549.217 113.052C550.933 114.612 553.273 115.314 556.237 115.158C559.357 115.002 562.321 114.768 565.129 114.456C565.909 114.612 566.611 114.534 567.235 114.222C567.859 113.754 568.561 113.364 569.341 113.052C570.901 112.116 572.227 111.024 573.319 109.776ZM715.221 25.0692C719.277 32.7132 720.213 42.3851 718.029 54.085H717.795C712.335 55.021 706.485 55.645 700.245 55.957C694.005 56.113 688.155 55.411 682.695 53.851C683.631 49.639 682.773 46.1291 680.121 43.3211C677.469 40.5131 674.271 38.7191 670.527 37.9391C666.783 37.1591 663.117 37.5491 659.529 39.1091C656.097 40.6691 654.069 43.6331 653.445 48.001C653.133 49.093 652.977 50.185 652.977 51.277C653.133 52.213 653.289 53.227 653.445 54.319C654.693 58.0629 656.721 60.5589 659.529 61.8069C662.337 63.0549 665.379 63.9129 668.655 64.3809C676.923 65.3169 684.567 67.9689 691.587 72.3368C698.763 76.7048 704.613 82.2427 709.137 88.9507C711.945 92.5386 714.051 96.4386 715.455 100.651C716.859 104.707 717.639 108.918 717.795 113.286C718.107 117.654 717.795 122.1 716.859 126.624C716.079 130.992 714.753 135.204 712.881 139.26C711.009 144.096 708.513 148.23 705.393 151.662C702.273 155.094 698.685 157.902 694.629 160.086C690.729 162.27 686.439 163.908 681.759 165C677.235 165.936 672.555 166.326 667.719 166.17C660.855 166.014 653.991 164.844 647.127 162.66C640.419 160.32 634.413 157.122 629.109 153.066C623.805 149.01 619.593 144.096 616.473 138.324C613.353 132.396 612.027 125.688 612.495 118.2V117.498V116.796C617.955 116.016 623.961 115.86 630.513 116.328C637.065 116.64 642.993 116.718 648.297 116.562C648.609 121.554 650.559 125.298 654.147 127.794C657.891 130.29 661.791 131.538 665.847 131.538C670.059 131.382 673.647 129.978 676.611 127.326C679.731 124.674 680.823 120.618 679.887 115.158C679.419 111.414 678.015 108.451 675.675 106.267C673.335 103.927 670.527 102.055 667.251 100.651C664.131 99.2466 660.699 98.2326 656.955 97.6086C653.211 96.8286 649.701 96.1266 646.425 95.5026C643.305 94.8786 640.419 93.8646 637.767 92.4606C635.115 91.0567 632.697 89.4187 630.513 87.5467C623.337 80.6827 618.657 73.1168 616.473 64.8489C614.445 56.581 614.367 48.547 616.239 40.7471C618.111 32.9472 621.621 25.8492 626.769 19.4533C632.073 13.0573 638.469 8.29939 645.957 5.17942C649.701 3.61944 653.835 2.60544 658.359 2.13745C662.883 1.51345 667.407 1.35745 671.931 1.66946C676.611 1.82545 681.135 2.44944 685.503 3.54143C690.027 4.63342 694.161 6.03741 697.905 7.75339C705.393 11.6534 711.165 17.4253 715.221 25.0692Z" fill="#FFBF00"/>
</svg>
