<svg width="499" height="212" viewBox="0 0 499 212" fill="none" xmlns="http://www.w3.org/2000/svg">
<rect width="499" height="212" fill="#5500AA"/>
<path d="M112.365 87.0549C112.696 94.7524 112.655 102.574 112.241 110.52L111.869 150.124C110.627 149.959 109.262 149.876 107.772 149.876C106.282 149.876 104.792 149.876 103.302 149.876C101.812 149.876 100.364 149.917 98.957 150C97.6327 150 96.4739 150 95.4807 150C95.3152 146.441 95.191 142.592 95.1082 138.454C95.1082 134.315 95.0669 130.094 94.9841 125.79C94.9841 121.486 94.8599 117.265 94.6116 113.127C94.4461 108.988 94.1564 105.181 93.7426 101.705C93.1632 102.615 92.5011 104.064 91.7561 106.05C91.0112 107.954 90.2663 109.94 89.5214 112.009C88.7765 114.079 88.073 115.9 87.4108 117.472C86.7487 119.045 86.2521 119.831 85.921 119.831C85.5072 119.831 85.0105 119.417 84.4312 118.59C83.9346 117.679 83.3966 116.562 82.8172 115.237C82.3206 113.913 81.7826 112.506 81.2032 111.016C80.6238 109.526 80.1272 108.161 79.7134 106.919C79.2996 105.678 78.9271 104.643 78.596 103.815C78.3477 102.988 78.2236 102.574 78.2236 102.574C77.5614 110.354 77.3131 118.217 77.4787 126.163C77.727 134.109 78.0994 141.93 78.596 149.628C75.9474 150.041 73.0506 150.207 69.9054 150.124C66.7602 150.041 63.8633 150 61.2147 150C61.0492 150 60.9251 149.876 60.8423 149.628C60.7595 149.296 60.6768 148.51 60.594 147.269C60.5112 146.027 60.4284 144.165 60.3457 141.682C60.3457 139.116 60.3457 135.764 60.3457 131.626C60.3457 127.487 60.3457 122.355 60.3457 116.231C60.4284 110.106 60.4698 102.822 60.4698 94.3799C60.5526 85.9376 60.6354 76.0882 60.7181 64.8317C61.7941 64.5006 63.0356 64.2937 64.4427 64.211C65.8498 64.1282 67.2982 64.1282 68.788 64.211C70.2778 64.211 71.7677 64.2523 73.2575 64.3351C74.7473 64.3351 76.1958 64.2937 77.6028 64.211H77.727C78.4719 65.0386 79.2168 66.3215 79.9617 68.0597C80.7066 69.715 81.4101 71.4945 82.0723 73.3982C82.7344 75.3019 83.3552 77.1228 83.9346 78.8609C84.5967 80.599 85.2589 81.9647 85.921 82.9579C86.1693 83.2062 86.4176 83.3304 86.6659 83.3304C86.9142 83.4131 87.2867 82.6268 87.7833 80.9715C88.3627 79.3161 88.942 77.4125 89.5214 75.2605C90.1835 73.0258 90.8871 70.8324 91.632 68.6804C92.4597 66.5285 93.246 64.9559 93.9909 63.9627C94.5703 64.0454 95.6049 64.0454 97.0947 63.9627C98.6673 63.8799 100.323 63.7971 102.061 63.7143C103.882 63.6316 105.703 63.5902 107.523 63.5902C109.427 63.5074 111.041 63.466 112.365 63.466C112.034 71.4118 112.034 79.2747 112.365 87.0549ZM156.064 100.712C156.643 103.112 157.099 105.016 157.43 106.423L166.741 149.876V150C164.258 150.497 161.527 150.662 158.547 150.497C155.567 150.414 152.753 150.083 150.105 149.503H149.981C149.484 148.179 148.987 146.607 148.491 144.786C148.077 142.965 147.622 141.102 147.125 139.199C146.711 137.295 146.256 135.474 145.759 133.736C145.263 131.998 144.725 130.508 144.145 129.267C143.069 129.101 142.242 129.018 141.662 129.018C141.083 129.018 140.545 129.018 140.048 129.018C139.635 129.018 139.138 129.06 138.559 129.142C138.062 129.142 137.358 129.142 136.448 129.142C135.869 130.467 135.372 132.039 134.958 133.86C134.627 135.598 134.255 137.461 133.841 139.447C133.51 141.351 133.137 143.213 132.723 145.034C132.31 146.855 131.73 148.469 130.985 149.876C130.902 149.876 130.82 149.917 130.737 150C130.737 150 130.696 150 130.613 150C129.951 150.166 128.295 150.166 125.647 150C122.998 149.834 118.86 149.793 113.232 149.876C113.149 149.876 113.066 149.834 112.983 149.752C113.149 149.172 113.438 147.558 113.852 144.91C114.266 142.261 114.846 138.826 115.59 134.605C116.335 130.384 117.204 125.542 118.198 120.079C119.274 114.534 120.515 108.657 121.922 102.45C123.329 96.2422 124.86 89.7863 126.516 83.0821C128.171 76.3779 129.992 69.715 131.978 63.0936C132.558 63.0108 133.179 62.9694 133.841 62.9694C134.503 62.9694 135.372 62.9694 136.448 62.9694C137.524 62.9694 138.89 62.9694 140.545 62.9694C142.283 62.8867 144.518 62.7211 147.249 62.4728C147.497 63.5488 147.87 65.2042 148.367 67.4389C148.946 69.5909 149.525 72.0739 150.105 74.888C150.767 77.6194 151.429 80.5576 152.091 83.7028C152.836 86.848 153.54 89.869 154.202 92.7659C154.864 95.6628 155.485 98.3114 156.064 100.712ZM140.048 114.617C141.621 114.534 143.194 114.493 144.766 114.493C143.938 107.374 143.194 101.829 142.531 97.8562C141.952 93.8833 141.414 91.1933 140.917 89.7863C140.504 88.3792 140.048 88.0895 139.552 88.9172C139.138 89.6621 138.724 91.2347 138.31 93.635C137.979 96.0353 137.565 99.0563 137.069 102.698C136.655 106.34 136.158 110.271 135.579 114.493C136.986 114.575 138.476 114.617 140.048 114.617ZM204.185 66.9423C206.668 68.846 208.654 70.9979 210.144 73.3982C211.965 76.2123 213.455 79.1506 214.613 82.213C215.855 85.1926 216.848 88.3378 217.593 91.6486C218.007 92.9728 218.255 94.2971 218.338 95.6214C218.503 96.8629 218.628 98.1458 218.71 99.4701C218.545 103.36 218.379 107.292 218.214 111.265C218.131 115.155 217.717 119.003 216.972 122.811C216.972 122.893 216.931 122.935 216.848 122.935C216.848 122.935 216.848 122.976 216.848 123.059C215.193 127.942 212.917 132.577 210.02 136.964C207.206 141.351 204.226 145.489 201.081 149.379C195.618 149.545 190.114 149.669 184.568 149.752C179.023 149.752 173.643 149.752 168.429 149.752C168.429 149.752 168.387 149.793 168.305 149.876C167.394 143.337 166.815 136.592 166.566 129.639C166.318 122.604 166.194 115.486 166.194 108.285C166.194 101.084 166.235 93.8419 166.318 86.5583C166.484 79.192 166.484 71.9084 166.318 64.7076C166.401 64.6248 166.442 64.542 166.442 64.4593C166.525 64.3765 166.608 64.2937 166.691 64.211C169.008 63.6316 171.408 63.2591 173.891 63.0936C176.457 62.8453 179.023 62.7625 181.589 62.8453C184.155 62.8453 186.679 62.8867 189.162 62.9694C191.728 63.0522 194.211 63.0522 196.611 62.9694C199.26 63.6316 201.784 64.9559 204.185 66.9423ZM196.984 120.7C197.646 119.955 198.225 119.21 198.722 118.465C200.129 116.313 201.122 113.955 201.701 111.389C202.364 108.823 202.364 106.009 201.701 102.946C201.453 101.705 201.163 100.422 200.832 99.0977C200.501 97.6906 200.005 96.3663 199.343 95.1248C198.763 93.8833 198.018 92.8073 197.108 91.8969C196.197 90.9036 195.039 90.1587 193.632 89.6621C192.225 89.4966 190.693 89.4138 189.038 89.4138C187.383 89.331 185.81 89.4552 184.32 89.7863H184.072H183.948V90.2829C184.113 92.5176 184.196 94.9179 184.196 97.4837C184.196 100.05 184.155 102.739 184.072 105.554C183.989 108.285 183.948 111.099 183.948 113.996C183.948 116.81 184.031 119.624 184.196 122.438C185.106 123.266 186.348 123.638 187.921 123.556C189.576 123.473 191.149 123.349 192.638 123.183C193.052 123.266 193.425 123.225 193.756 123.059C194.087 122.811 194.459 122.604 194.873 122.438C195.701 121.942 196.404 121.362 196.984 120.7ZM273.39 87.0549C273.721 94.7524 273.679 102.574 273.265 110.52L272.893 150.124C271.651 149.959 270.286 149.876 268.796 149.876C267.306 149.876 265.816 149.876 264.326 149.876C262.837 149.876 261.388 149.917 259.981 150C258.657 150 257.498 150 256.505 150C256.339 146.441 256.215 142.592 256.132 138.454C256.132 134.315 256.091 130.094 256.008 125.79C256.008 121.486 255.884 117.265 255.636 113.127C255.47 108.988 255.181 105.181 254.767 101.705C254.187 102.615 253.525 104.064 252.78 106.05C252.035 107.954 251.291 109.94 250.546 112.009C249.801 114.079 249.097 115.9 248.435 117.472C247.773 119.045 247.276 119.831 246.945 119.831C246.531 119.831 246.035 119.417 245.455 118.59C244.959 117.679 244.421 116.562 243.841 115.237C243.345 113.913 242.807 112.506 242.227 111.016C241.648 109.526 241.151 108.161 240.738 106.919C240.324 105.678 239.951 104.643 239.62 103.815C239.372 102.988 239.248 102.574 239.248 102.574C238.586 110.354 238.337 118.217 238.503 126.163C238.751 134.109 239.124 141.93 239.62 149.628C236.972 150.041 234.075 150.207 230.93 150.124C227.784 150.041 224.888 150 222.239 150C222.073 150 221.949 149.876 221.866 149.628C221.784 149.296 221.701 148.51 221.618 147.269C221.535 146.027 221.453 144.165 221.37 141.682C221.37 139.116 221.37 135.764 221.37 131.626C221.37 127.487 221.37 122.355 221.37 116.231C221.453 110.106 221.494 102.822 221.494 94.3799C221.577 85.9376 221.66 76.0882 221.742 64.8317C222.818 64.5006 224.06 64.2937 225.467 64.211C226.874 64.1282 228.322 64.1282 229.812 64.211C231.302 64.211 232.792 64.2523 234.282 64.3351C235.771 64.3351 237.22 64.2937 238.627 64.211H238.751C239.496 65.0386 240.241 66.3215 240.986 68.0597C241.731 69.715 242.434 71.4945 243.096 73.3982C243.759 75.3019 244.379 77.1228 244.959 78.8609C245.621 80.599 246.283 81.9647 246.945 82.9579C247.193 83.2062 247.442 83.3304 247.69 83.3304C247.938 83.4131 248.311 82.6268 248.807 80.9715C249.387 79.3161 249.966 77.4125 250.546 75.2605C251.208 73.0258 251.911 70.8324 252.656 68.6804C253.484 66.5285 254.27 64.9559 255.015 63.9627C255.594 64.0454 256.629 64.0454 258.119 63.9627C259.691 63.8799 261.347 63.7971 263.085 63.7143C264.906 63.6316 266.727 63.5902 268.548 63.5902C270.451 63.5074 272.065 63.466 273.39 63.466C273.058 71.4118 273.058 79.2747 273.39 87.0549ZM322.675 68.9287C325.075 71.0807 326.772 73.6051 327.765 76.502C328.345 77.7435 328.758 79.0264 329.007 80.3507C329.338 81.5922 329.586 82.8751 329.752 84.1994C329.917 86.2686 330 88.3378 330 90.407C330.083 92.3935 330.083 94.4213 330 96.4905C329.752 100.877 329.669 105.14 329.752 109.278C329.834 113.417 329.71 117.638 329.379 121.942L329.007 126.039C328.841 128.936 328.386 131.874 327.641 134.853C326.896 137.75 325.779 140.399 324.289 142.799C322.882 144.786 321.02 146.4 318.702 147.641C316.467 148.8 314.067 149.71 311.501 150.372C309.184 151.035 306.825 151.448 304.425 151.614C302.107 151.78 299.748 151.78 297.348 151.614C295.61 151.448 293.913 151.2 292.258 150.869C290.685 150.621 289.154 150.166 287.664 149.503C286.257 148.841 284.974 148.014 283.815 147.02C282.657 145.944 281.705 144.579 280.96 142.923C279.801 140.854 279.015 138.661 278.601 136.343C278.27 133.943 278.063 131.543 277.98 129.142C277.732 122.687 277.442 116.231 277.111 109.775C276.863 103.236 276.946 96.6974 277.36 90.1587C277.442 86.4342 277.898 82.7096 278.725 78.985C279.636 75.1777 281.374 71.8256 283.94 68.9287C284.767 68.1011 285.719 67.3561 286.795 66.694C289.526 65.3697 292.465 64.4179 295.61 63.8385C298.838 63.1764 302.024 62.9281 305.17 63.0936C308.398 63.2591 311.501 63.8385 314.481 64.8317C317.543 65.7422 320.275 67.1078 322.675 68.9287ZM314.481 112.754V106.795L314.233 98.3528C314.233 98.27 314.15 97.4423 313.984 95.8697C313.902 94.2144 313.819 92.6832 313.736 91.2761C313.571 88.9586 312.908 86.848 311.75 84.9443C310.674 83.0407 309.184 81.6336 307.28 80.7232C305.625 80.061 303.928 79.9369 302.19 80.3507C300.452 80.7646 298.921 81.4681 297.596 82.4613C294.699 84.696 292.754 87.5515 291.761 91.0278C291.099 94.173 290.685 97.4837 290.52 100.96C290.437 104.436 290.478 107.912 290.644 111.389C291.058 114.286 291.347 117.265 291.513 120.328C291.678 123.307 292.175 126.163 293.003 128.894C293.83 130.55 295.03 131.832 296.603 132.743C298.176 133.653 299.872 134.191 301.693 134.357C303.514 134.44 305.335 134.191 307.156 133.612C308.977 132.95 310.508 131.915 311.75 130.508C312.495 129.515 313.033 128.729 313.364 128.149C313.695 127.487 313.902 126.784 313.984 126.039C314.067 125.294 314.067 124.425 313.984 123.431C313.984 122.355 314.067 120.948 314.233 119.21C314.315 117.555 314.357 116.107 314.357 114.865C314.44 113.623 314.481 112.92 314.481 112.754ZM371.392 66.9423C373.875 68.846 375.862 70.9979 377.351 73.3982C379.172 76.2123 380.662 79.1506 381.821 82.213C383.062 85.1926 384.056 88.3378 384.8 91.6486C385.214 92.9728 385.463 94.2971 385.545 95.6214C385.711 96.8629 385.835 98.1458 385.918 99.4701C385.752 103.36 385.587 107.292 385.421 111.265C385.338 115.155 384.925 119.003 384.18 122.811C384.18 122.893 384.138 122.935 384.056 122.935C384.056 122.935 384.056 122.976 384.056 123.059C382.4 127.942 380.124 132.577 377.227 136.964C374.413 141.351 371.433 145.489 368.288 149.379C362.826 149.545 357.322 149.669 351.776 149.752C346.231 149.752 340.851 149.752 335.636 149.752C335.636 149.752 335.595 149.793 335.512 149.876C334.602 143.337 334.022 136.592 333.774 129.639C333.526 122.604 333.402 115.486 333.402 108.285C333.402 101.084 333.443 93.8419 333.526 86.5583C333.691 79.192 333.691 71.9084 333.526 64.7076C333.608 64.6248 333.65 64.542 333.65 64.4593C333.733 64.3765 333.815 64.2937 333.898 64.211C336.216 63.6316 338.616 63.2591 341.099 63.0936C343.665 62.8453 346.231 62.7625 348.796 62.8453C351.362 62.8453 353.887 62.8867 356.37 62.9694C358.935 63.0522 361.419 63.0522 363.819 62.9694C366.467 63.6316 368.992 64.9559 371.392 66.9423ZM364.191 120.7C364.853 119.955 365.433 119.21 365.929 118.465C367.336 116.313 368.33 113.955 368.909 111.389C369.571 108.823 369.571 106.009 368.909 102.946C368.661 101.705 368.371 100.422 368.04 99.0977C367.709 97.6906 367.212 96.3663 366.55 95.1248C365.971 93.8833 365.226 92.8073 364.315 91.8969C363.405 90.9036 362.246 90.1587 360.839 89.6621C359.432 89.4966 357.901 89.4138 356.246 89.4138C354.59 89.331 353.018 89.4552 351.528 89.7863H351.279H351.155V90.2829C351.321 92.5176 351.404 94.9179 351.404 97.4837C351.404 100.05 351.362 102.739 351.279 105.554C351.197 108.285 351.155 111.099 351.155 113.996C351.155 116.81 351.238 119.624 351.404 122.438C352.314 123.266 353.556 123.638 355.128 123.556C356.784 123.473 358.356 123.349 359.846 123.183C360.26 123.266 360.632 123.225 360.963 123.059C361.294 122.811 361.667 122.604 362.081 122.438C362.908 121.942 363.612 121.362 364.191 120.7ZM439.48 75.7571C441.632 79.8127 442.128 84.9443 440.97 91.1519H440.845C437.949 91.6486 434.845 91.9796 431.534 92.1452C428.223 92.2279 425.119 91.8555 422.223 91.0278C422.719 88.7931 422.264 86.9308 420.857 85.441C419.45 83.9511 417.753 82.9993 415.767 82.5855C413.78 82.1716 411.835 82.3785 409.932 83.2062C408.111 84.0339 407.035 85.6065 406.704 87.924C406.538 88.5034 406.455 89.0827 406.455 89.6621C406.538 90.1587 406.621 90.6967 406.704 91.2761C407.366 93.2625 408.442 94.5868 409.932 95.249C411.421 95.9111 413.035 96.3663 414.773 96.6146C419.16 97.1112 423.216 98.5183 426.94 100.836C430.748 103.153 433.852 106.092 436.252 109.651C437.742 111.554 438.859 113.623 439.604 115.858C440.349 118.01 440.763 120.245 440.845 122.562C441.011 124.88 440.845 127.239 440.349 129.639C439.935 131.957 439.231 134.191 438.238 136.343C437.245 138.909 435.921 141.102 434.265 142.923C432.61 144.744 430.706 146.234 428.554 147.393C426.485 148.552 424.209 149.421 421.726 150C419.326 150.497 416.843 150.704 414.277 150.621C410.635 150.538 406.993 149.917 403.352 148.758C399.792 147.517 396.606 145.82 393.792 143.668C390.978 141.516 388.743 138.909 387.088 135.847C385.432 132.701 384.729 129.142 384.977 125.17V124.797V124.425C387.874 124.011 391.06 123.928 394.537 124.176C398.013 124.342 401.158 124.383 403.972 124.301C404.138 126.949 405.172 128.936 407.076 130.26C409.062 131.584 411.132 132.246 413.284 132.246C415.518 132.163 417.422 131.419 418.995 130.012C420.65 128.604 421.229 126.453 420.733 123.556C420.484 121.569 419.74 119.997 418.498 118.838C417.257 117.596 415.767 116.603 414.029 115.858C412.373 115.113 410.552 114.575 408.566 114.244C406.579 113.83 404.717 113.458 402.979 113.127C401.324 112.796 399.792 112.258 398.385 111.513C396.978 110.768 395.695 109.899 394.537 108.906C390.729 105.264 388.246 101.25 387.088 96.8629C386.012 92.4762 385.97 88.2137 386.963 84.0753C387.957 79.9369 389.819 76.1709 392.55 72.7774C395.364 69.384 398.758 66.8595 402.731 65.2042C404.717 64.3765 406.911 63.8385 409.311 63.5902C411.711 63.2591 414.111 63.1764 416.512 63.3419C418.995 63.4247 421.395 63.7557 423.712 64.3351C426.113 64.9145 428.306 65.6594 430.292 66.5698C434.265 68.639 437.328 71.7015 439.48 75.7571Z" fill="#FFBF00"/>
</svg>
