<svg width="128" height="128" viewBox="0 0 128 128" fill="none" xmlns="http://www.w3.org/2000/svg">
<rect width="128" height="128" fill="#5500AA"/>
<path d="M87.1212 47.0488C87.4154 53.891 87.3787 60.8435 87.0108 67.9064L86.6797 103.11C85.5762 102.963 84.3622 102.89 83.0379 102.89C81.7137 102.89 80.3894 102.89 79.0651 102.89C77.7408 102.89 76.4533 102.926 75.2026 103C74.0254 103 72.9954 103 72.1126 103C71.9654 99.8364 71.8551 96.4153 71.7815 92.7368C71.7815 89.0582 71.7447 85.306 71.6711 81.4803C71.6711 77.6546 71.5608 73.9024 71.3401 70.2239C71.1929 66.5453 70.9354 63.161 70.5676 60.071C70.0526 60.8803 69.464 62.1678 68.8018 63.9335C68.1397 65.6256 67.4776 67.3914 66.8154 69.2306C66.1533 71.0699 65.5279 72.6885 64.9393 74.0864C64.3508 75.4842 63.9093 76.1832 63.615 76.1832C63.2472 76.1832 62.8058 75.8153 62.2908 75.0796C61.8493 74.2703 61.3711 73.2771 60.8561 72.0999C60.4147 70.9228 59.9365 69.6721 59.4215 68.3478C58.9065 67.0235 58.465 65.8096 58.0972 64.706C57.7293 63.6024 57.3982 62.6828 57.104 61.9471C56.8832 61.2113 56.7729 60.8435 56.7729 60.8435C56.1843 67.7592 55.9636 74.7485 56.1107 81.8114C56.3315 88.8743 56.6625 95.8268 57.104 102.669C54.7497 103.037 52.1747 103.184 49.3789 103.11C46.5832 103.037 44.0082 103 41.6539 103C41.5068 103 41.3964 102.89 41.3229 102.669C41.2493 102.375 41.1757 101.676 41.1021 100.572C41.0286 99.4686 40.955 97.8132 40.8814 95.6061C40.8814 93.3253 40.8814 90.3457 40.8814 86.6671C40.8814 82.9885 40.8814 78.4271 40.8814 72.9828C40.955 67.5385 40.9918 61.0642 40.9918 53.5599C41.0654 46.0556 41.1389 37.3006 41.2125 27.2949C42.1689 27.0006 43.2725 26.8166 44.5232 26.7431C45.7739 26.6695 47.0614 26.6695 48.3857 26.7431C49.71 26.7431 51.0343 26.7799 52.3586 26.8534C53.6829 26.8534 54.9704 26.8166 56.2211 26.7431H56.3315C56.9936 27.4788 57.6557 28.6191 58.3179 30.1641C58.98 31.6356 59.6054 33.2174 60.194 34.9095C60.7825 36.6017 61.3343 38.2202 61.8493 39.7652C62.4379 41.3102 63.0265 42.5242 63.615 43.407C63.8358 43.6277 64.0565 43.7381 64.2772 43.7381C64.4979 43.8117 64.829 43.1127 65.2704 41.6413C65.7854 40.1699 66.3004 38.4777 66.8154 36.5649C67.404 34.5784 68.0293 32.6288 68.6915 30.7159C69.4272 28.8031 70.1261 27.4052 70.7883 26.5224C71.3033 26.5959 72.2229 26.5959 73.5472 26.5224C74.9451 26.4488 76.4165 26.3752 77.9615 26.3016C79.5801 26.2281 81.1986 26.1913 82.8172 26.1913C84.5094 26.1177 85.944 26.0809 87.1212 26.0809C86.8269 33.1438 86.8269 40.1331 87.1212 47.0488Z" fill="#FFBF00"/>
</svg>
