<?xml version="1.0" encoding="utf-8"?>
<svg width="800px" height="619.2778px" viewBox="0 0 800 619.2778" version="1.1" xmlns:xlink="http://www.w3.org/1999/xlink" xmlns="http://www.w3.org/2000/svg">
  <path d="M677.676 51.8644C625.891 27.6353 570.519 10.0266 512.63 0C505.521 12.8536 497.214 30.1422 491.488 43.8951C429.95 34.6406 368.978 34.6406 308.572 43.8951C302.846 30.1422 294.352 12.8536 287.179 0C229.227 10.0266 173.792 27.7 122.006 51.9927C17.5547 209.833 -10.7603 363.752 3.39746 515.487C72.6753 567.221 139.813 598.649 205.819 619.214C222.116 596.785 236.651 572.942 249.172 547.813C225.325 538.752 202.484 527.569 180.902 514.587C186.628 510.346 192.229 505.911 197.639 501.348C329.273 562.916 472.297 562.916 602.358 501.348C607.832 505.911 613.432 510.346 619.095 514.587C597.449 527.633 574.546 538.815 550.699 547.878C563.22 572.942 577.692 596.849 594.052 619.278C660.121 598.713 727.322 567.286 796.6 515.487C813.212 339.588 768.222 187.082 677.676 51.8644L677.676 51.8644ZM267.106 422.172C227.591 422.172 195.185 385.282 195.185 340.359C195.185 295.436 226.899 258.483 267.106 258.483C307.314 258.483 339.719 295.372 339.026 340.359C339.089 385.282 307.314 422.172 267.106 422.172L267.106 422.172ZM532.892 422.172C493.376 422.172 460.971 385.282 460.971 340.359C460.971 295.436 492.683 258.483 532.892 258.483C573.099 258.483 605.504 295.372 604.812 340.359C604.812 385.282 573.099 422.172 532.892 422.172L532.892 422.172Z" id="Group-2" fill="#FFFFFF" fill-rule="evenodd" stroke="none" />
</svg>